<svg
    id="svg"
    xmlns="http://www.w3.org/2000/svg"
    xmlns:xlink="http://www.w3.org/1999/xlink"
    width="400"
    height="147.60147601476015"
    viewBox="0, 0, 400,147.60147601476015"
    version="1.1">
    <g id="svgg">
        <path id="path0" d="M138.195 1.039 C 131.603 3.179,122.824 10.574,117.743 18.266 C 115.247 22.044,116.971 22.181,105.484 17.294 C 70.967 2.609,51.164 1.893,38.166 14.862 C 27.839 25.166,25.046 44.030,32.290 54.558 C 43.360 70.648,70.605 66.720,75.339 48.351 C 75.759 46.721,76.271 44.806,76.477 44.096 C 76.757 43.131,76.419 42.802,75.142 42.793 C 70.354 42.761,68.463 35.598,72.321 32.106 C 74.914 29.760,102.269 35.146,106.156 38.768 C 106.294 38.897,104.982 42.515,103.240 46.808 L 100.073 54.613 96.827 54.613 C 88.111 54.613,81.430 62.793,82.056 72.699 C 82.346 77.293,83.837 77.813,87.500 74.597 C 88.924 73.347,90.382 72.325,90.740 72.325 C 91.099 72.325,91.912 72.125,92.547 71.882 C 94.723 71.046,87.139 88.482,82.541 94.885 C 72.398 109.009,59.122 100.944,61.950 82.377 C 63.007 75.438,63.202 75.683,55.454 74.224 C 24.377 68.375,0.826 83.948,0.749 110.399 C 0.626 152.776,62.082 161.886,91.686 123.879 C 100.061 113.127,105.453 103.227,111.365 87.747 C 113.968 80.932,114.140 80.686,115.859 81.322 C 127.306 85.557,136.481 78.635,136.727 65.579 C 136.956 53.469,130.719 44.830,127.270 52.479 C 125.968 55.365,122.920 58.222,122.060 57.361 C 121.710 57.012,124.410 46.190,125.163 44.922 C 125.315 44.666,127.686 44.927,130.432 45.503 C 156.700 51.011,176.502 34.926,170.420 13.022 C 167.630 2.974,151.131 -3.161,138.195 1.039 M145.978 18.598 C 149.518 22.138,144.991 29.520,139.281 29.520 C 136.079 29.520,131.365 28.307,131.365 27.483 C 131.365 21.983,142.558 15.178,145.978 18.598 M155.351 67.455 C 132.122 74.821,117.230 113.395,131.204 130.001 C 137.014 136.906,149.997 135.917,159.709 127.830 L 163.330 124.815 164.772 127.728 C 169.749 137.789,187.437 136.631,199.329 125.466 L 202.968 122.050 205.175 125.959 C 212.176 138.366,231.384 137.445,243.595 124.118 C 253.962 112.805,266.751 85.973,269.776 69.188 L 270.275 66.421 264.104 66.424 L 257.934 66.428 255.453 73.620 C 239.294 120.472,218.717 122.700,229.508 76.429 C 230.732 71.177,231.734 66.768,231.734 66.630 C 231.734 66.493,227.014 66.472,221.244 66.585 L 210.753 66.790 207.975 75.518 C 205.182 84.295,202.214 97.861,202.214 101.851 C 202.214 106.871,193.652 112.176,190.554 109.077 C 187.557 106.081,190.632 93.167,200.414 67.677 C 201.343 65.257,181.045 65.840,179.940 68.266 C 179.046 70.226,178.240 70.586,177.484 69.362 C 175.760 66.573,161.898 65.379,155.351 67.455 M294.834 66.775 C 294.428 66.906,292.269 67.576,290.037 68.264 C 265.790 75.738,254.281 111.175,270.680 127.869 C 280.605 137.974,301.133 136.698,315.381 125.092 C 336.439 107.938,336.182 73.848,314.947 67.542 C 311.618 66.553,297.224 66.005,294.834 66.775 M362.731 67.423 C 336.892 75.898,324.202 112.912,341.732 128.674 C 355.739 141.267,389.493 132.950,398.801 114.612 C 402.590 107.148,397.733 101.527,390.952 105.528 C 372.192 116.597,354.069 107.819,361.748 91.384 C 368.988 75.890,382.775 74.671,376.083 90.116 C 375.461 91.552,378.985 93.244,382.396 93.148 C 391.901 92.877,392.629 76.469,383.465 69.046 C 380.208 66.408,368.597 65.499,362.731 67.423 M170.920 80.834 C 172.047 85.325,164.392 101.796,158.648 107.241 C 148.669 116.698,147.695 101.488,157.353 87.025 C 162.280 79.647,169.765 76.231,170.920 80.834 M312.019 80.792 C 319.131 86.776,315.345 104.326,305.984 108.769 C 299.775 111.715,291.738 109.497,289.537 104.230 C 284.005 90.989,301.929 72.302,312.019 80.792 " stroke="none" fill="#ffffff" fill-rule="evenodd"></path>
    </g>
</svg>